<?xml version="1.0" encoding="UTF-8"?>
<svg id="Layer_1" data-name="Layer 1" xmlns="http://www.w3.org/2000/svg" viewBox="0 0 632.13 402.88">
  <defs>
    <style>
      .cls-1 {
        fill: #ef6432;
      }
    </style>
  </defs>
  <path class="cls-1" d="M344.06,266.79c-1.83.37-3.56.95-5.18,1.72-8.35,3.95-13.63,12.9-13.63,24.42v19.62c0,.1.18.28.28.28h47.5c.1,0,.28-.18.28-.28v-19.62c0-15.67-9.99-26.62-24.3-26.62-1.72,0-3.38.17-4.96.49Z"/>
  <path class="cls-1" d="M255.36,228.19c-14,0-23.78,10.95-23.78,26.62v19.62c0,.1.18.28.28.28h47.51c.1,0,.28-.18.28-.28v-19.62c0-15.67-9.99-26.62-24.3-26.62Z"/>
  <path class="cls-1" d="M632.13,400.38v-35.67c0-1.38-1.12-2.5-2.5-2.5h-20.49v-.5c-.1-97.8-29.41-181.56-84.79-242.21-24.57-26.91-53.48-48.48-85.94-64.11-30.98-14.92-63.74-23.77-97.37-26.32l-.46-.04V2.5c0-1.38-1.12-2.5-2.5-2.5h-44.04c-1.38,0-2.5,1.12-2.5,2.5v26.53s-.46.04-.46.04c-15.49,1.17-30.78,3.7-45.81,7.52v37.46c6.15-7.87,15.64-12.36,26.1-12.36,21.76,0,36.38,15.87,36.38,39.48v57.06c0,23.46-14.62,39.22-36.38,39.22-10.48,0-19.99-4.5-26.1-12.36v6.96c0,1.96-1.37,3.33-3.33,3.33h-8.52c-1.96,0-3.33-1.37-3.33-3.33V40.92c-12.35,3.92-24.5,8.74-36.38,14.46-32.45,15.63-61.37,37.2-85.94,64.11-55.37,60.65-84.69,144.41-84.79,242.21v.5H2.5c-1.38,0-2.5,1.12-2.5,2.5v35.67c0,1.38,1.12,2.5,2.5,2.5h64.21v-121.88c0-1.96,1.37-3.33,3.33-3.33h8.52c1.96,0,3.33,1.37,3.33,3.33v9.03c6.27-9.17,15.79-14.17,26.88-14.17,13.23,0,23.14,6.99,28.67,20.21.03-.05.06-.11.09-.17,5.76-12.72,16.93-20.04,30.62-20.04,20.21,0,32.77,16.51,32.77,43.09v83.93h258.95c-2.13-12.34-13.97-17.16-26.44-22.24l-.13-.05c-14.47-5.99-32.48-13.44-32.48-37.87,0-21.32,14.38-35.09,36.64-35.09s36.9,14.1,36.9,35.09v.77c0,1.96-1.37,3.33-3.33,3.33h-7.75c-1.96,0-3.34-1.37-3.34-3.33v-1.29c0-12.58-9.46-21.71-22.48-21.71s-21.97,8.83-21.97,21.97c0,14.18,11.38,19.21,24.56,25.03l.82.36c14.58,6.07,32.55,13.58,34.36,35.04h154.4c1.38,0,2.5-1.12,2.5-2.5ZM294.58,284.76c0,1.96-1.37,3.33-3.33,3.33h-59.38c-.1,0-.28.18-.28.28v21.94c0,15.52,9.78,26.36,23.78,26.36,11.43,0,20.35-7.3,23.28-19.05.45-1.38,1.25-2.89,3.57-2.89l8.57.52h0c.98,0,1.85.37,2.42,1.04.54.63.75,1.49.6,2.42-3.21,19.5-17.94,31.61-38.44,31.61-23.3,0-38.96-15.76-38.96-39.22v-57.06c0-23.24,16.02-39.48,38.96-39.48s39.22,15.87,39.22,39.48v30.72ZM400.41,90.41l-36.39,140.15c-2.54,9.69-4.91,17.08-7.6,22.68,19.31,3,31.82,17.88,31.82,38.91v30.72c0,1.96-1.37,3.33-3.33,3.33h-59.38c-.1,0-.28.18-.28.28v21.94c0,15.52,9.78,26.36,23.78,26.36,11.43,0,20.35-7.3,23.28-19.05.46-1.38,1.26-2.89,3.57-2.89l8.57.51h0c.98,0,1.85.37,2.42,1.04.54.63.75,1.49.6,2.42-3.2,19.5-17.93,31.61-38.44,31.61-23.3,0-38.96-15.76-38.96-39.22v-57.06c0-12.89,4.93-23.62,13.24-30.63,3.04-2.56,6.52-4.62,10.38-6.11.74-.28,1.49-.54,2.25-.78,7.35-3.27,10.71-12.59,15.79-36.81l.06-.18c.06-.12.04-.29-.01-.58-.03-.18-.06-.35-.06-.53l-33.05-126.52v-.1s-.03-.01-.05-.05c-.09-.17-.21-.42-.21-.72,0-1.69,1.34-2.82,3.33-2.82h9.04c1.79,0,3.23,1.18,3.57,2.93l25.34,106.73,24.83-106.75c.3-1.83,1.61-2.91,3.57-2.91l9.56.26c1.08,0,1.96.4,2.48,1.12.52.73.63,1.69.29,2.71ZM565.42,363.33c0,1.96-1.37,3.33-3.33,3.33h-8.52c-1.96,0-3.33-1.37-3.33-3.33v-87.78c0-18.23-8.2-28.68-22.48-28.68-12.54,0-21.24,8.52-23.26,22.8v93.67c0,1.96-1.37,3.33-3.33,3.33h-8.52c-1.96,0-3.33-1.37-3.33-3.33v-175.56c0-1.96,1.37-3.33,3.33-3.33h8.52c1.96,0,3.33,1.37,3.33,3.33v59.61c5.98-9.12,15.7-14.15,27.39-14.15,21.31,0,33.54,14.95,33.54,41.03v89.07Z"/>
  <path class="cls-1" d="M164.02,289.49c-14.03,0-22.74,11.58-22.74,30.23v83.15h44.46v-82.63c0-18.68-8.52-30.75-21.71-30.75Z"/>
  <path class="cls-1" d="M268.27,183.81c14.53,0,24.29-10.59,24.29-26.36v-55.51c0-15.92-9.76-26.62-24.29-26.62-12.28,0-21.52,8.97-23,22.31v64.2c1.49,13.11,10.74,21.97,23,21.97Z"/>
  <path class="cls-1" d="M104.9,289.49c-14.19,0-23,11.58-23,30.23v83.15h44.46v-82.63c0-18.68-8.42-30.75-21.45-30.75Z"/>
</svg>