<?xml version="1.0" encoding="UTF-8"?>
<svg id="Layer_1" data-name="Layer 1" xmlns="http://www.w3.org/2000/svg" viewBox="0 0 634.13 404.88">
  <defs>
    <style>
      .cls-1 {
        fill: #ef6432;
      }
    </style>
  </defs>
  <path class="cls-1" d="M630.63,362.71h-19.99c-.21-212.6-136.72-323.16-268.56-333.14V3.5c0-1.66-1.34-3-3-3h-44.04c-1.66,0-3,1.34-3,3v26.06C160.21,39.55,23.69,150.11,23.49,362.71H3.5c-1.66,0-3,1.34-3,3v35.67c0,1.66,1.34,3,3,3h627.13c1.66,0,3-1.34,3-3v-35.67c0-1.66-1.34-3-3-3Z"/>
  <path class="cls-1" d="M630.63,404.88H3.5c-1.93,0-3.5-1.57-3.5-3.5v-35.67c0-1.93,1.57-3.5,3.5-3.5h19.49c.19-97.84,29.6-181.65,85.05-242.39,24.66-27.01,53.67-48.65,86.24-64.33,30.95-14.9,63.68-23.78,97.27-26.38V3.5c0-1.93,1.57-3.5,3.5-3.5h44.04c1.93,0,3.5,1.57,3.5,3.5v25.6c33.59,2.6,66.31,11.48,97.27,26.38,32.57,15.68,61.58,37.33,86.24,64.33,55.45,60.74,84.85,144.55,85.05,242.39h19.49c1.93,0,3.5,1.57,3.5,3.5v35.67c0,1.93-1.57,3.5-3.5,3.5ZM3.5,363.21c-1.38,0-2.5,1.12-2.5,2.5v35.67c0,1.38,1.12,2.5,2.5,2.5h627.13c1.38,0,2.5-1.12,2.5-2.5v-35.67c0-1.38-1.12-2.5-2.5-2.5h-20.49v-.5c-.1-97.8-29.41-181.56-84.79-242.21-24.57-26.91-53.48-48.48-85.94-64.11-30.98-14.92-63.74-23.77-97.37-26.32l-.46-.04V3.5c0-1.38-1.12-2.5-2.5-2.5h-44.04c-1.38,0-2.5,1.12-2.5,2.5v26.53s-.46.04-.46.04c-33.63,2.55-66.39,11.4-97.37,26.32-32.45,15.63-61.37,37.2-85.94,64.11-55.37,60.65-84.69,144.41-84.79,242.21v.5H3.5Z"/>
</svg>