<?xml version="1.0" encoding="UTF-8"?>
<svg id="Layer_1" data-name="Layer 1" xmlns="http://www.w3.org/2000/svg" viewBox="0 0 493.77 351.41">
  <defs>
    <style>
      .cls-1 {
        fill: #ef6432;
      }
    </style>
  </defs>
  <path class="cls-1" d="M240.81,88.01c0-23.61-14.62-39.48-36.38-39.48-10.46,0-19.95,4.49-26.1,12.36V3.33c0-1.96-1.37-3.33-3.33-3.33h-8.52c-1.96,0-3.33,1.37-3.33,3.33v181.56c0,1.96,1.37,3.33,3.33,3.33h8.52c1.96,0,3.33-1.37,3.33-3.33v-12.96c6.12,7.85,15.62,12.36,26.1,12.36,21.76,0,36.38-15.76,36.38-39.22v-57.06ZM225.63,144.3c0,15.77-9.76,26.36-24.29,26.36-12.27,0-21.52-8.86-23-21.97v-64.2c1.48-13.35,10.72-22.31,23-22.31,14.53,0,24.29,10.7,24.29,26.62v55.51Z"/>
  <path class="cls-1" d="M101.44,215.91c-13.69,0-24.86,7.31-30.62,20.04-.03.06-.06.12-.09.17-5.53-13.22-15.44-20.21-28.67-20.21-11.09,0-20.61,5-26.88,14.17v-9.03c0-1.96-1.37-3.33-3.33-3.33H3.33c-1.96,0-3.33,1.37-3.33,3.33v124.96c0,1.96,1.37,3.33,3.33,3.33h8.52c1.96,0,3.33-1.37,3.33-3.33v-86.23c0-18.65,8.81-30.23,23-30.23,13.03,0,21.46,12.07,21.46,30.75v85.72c0,1.96,1.37,3.33,3.33,3.33h8.26c1.96,0,3.33-1.37,3.33-3.33v-86.23c0-18.65,8.72-30.23,22.75-30.23,13.19,0,21.71,12.07,21.71,30.75v85.72c0,1.96,1.37,3.33,3.33,3.33h8.52c1.96,0,3.33-1.37,3.33-3.33v-87.01c0-26.58-12.55-43.09-32.76-43.09Z"/>
  <path class="cls-1" d="M187.09,215.66c-22.94,0-38.96,16.23-38.96,39.48v57.06c0,23.46,15.66,39.22,38.96,39.22,20.5,0,35.23-12.11,38.44-31.61.15-.92-.06-1.78-.6-2.42-.57-.67-1.44-1.04-2.42-1.04h0l-8.57-.52c-2.31,0-3.11,1.52-3.57,2.89-2.94,11.75-11.86,19.05-23.28,19.05-14,0-23.78-10.84-23.78-26.36v-21.94c0-.1.18-.28.28-.28h59.38c1.96,0,3.33-1.37,3.33-3.33v-30.72c0-23.61-15.76-39.48-39.22-39.48ZM211.38,275.53c0,.1-.18.28-.28.28h-47.51c-.1,0-.28-.18-.28-.28v-19.62c0-15.67,9.78-26.62,23.78-26.62s24.29,10.95,24.29,26.62v19.62Z"/>
  <path class="cls-1" d="M288.02,216.47c2.86-5.7,5.35-13.35,8.02-23.54l36.39-140.14c.34-1.02.24-1.98-.28-2.71-.52-.72-1.4-1.12-2.47-1.12h0l-9.58-.26c-1.96,0-3.27,1.08-3.57,2.9l-24.83,106.74-25.34-106.72c-.35-1.75-1.79-2.93-3.57-2.93h-9.04c-1.99,0-3.33,1.13-3.33,2.82,0,.3.12.54.21.72.02.04.04.08.05.05v.1l33.05,126.52c0,.18.04.36.06.53.05.29.07.45.01.57l-.06.18c-5.21,24.85-8.61,34.01-16.37,37.05-.74.21-1.47.43-2.19.68-3.61,1.24-6.91,2.97-9.85,5.13-9.42,6.92-15.08,18.27-15.08,32.09v57.06c0,23.46,15.66,39.22,38.96,39.22,20.51,0,35.23-12.11,38.44-31.61.15-.92-.06-1.78-.6-2.42-.57-.67-1.44-1.04-2.42-1.04h0l-8.57-.52c-2.3,0-3.11,1.51-3.57,2.89-2.94,11.75-11.86,19.05-23.28,19.05-14,0-23.78-10.84-23.78-26.36v-21.94c0-.1.18-.28.28-.28h59.38c1.96,0,3.33-1.37,3.33-3.33v-30.72c0-20.51-11.9-35.17-30.4-38.67ZM303.49,275.53c0,.1-.18.28-.28.28h-47.5c-.1,0-.28-.18-.28-.28v-19.62c0-11.95,5.69-21.15,14.61-24.85,1.53-.64,3.16-1.11,4.87-1.4,1.38-.24,2.81-.37,4.3-.37,14.3,0,24.29,10.95,24.29,26.62v19.62Z"/>
  <path class="cls-1" d="M368.98,276.91l-.82-.36c-13.18-5.82-24.56-10.85-24.56-25.03,0-13.14,8.83-21.97,21.97-21.97s22.48,9.13,22.48,21.71v1.29c0,1.96,1.37,3.33,3.34,3.33h7.75c1.96,0,3.33-1.37,3.33-3.33v-.77c0-20.99-14.83-35.09-36.9-35.09s-36.64,13.77-36.64,35.09c0,24.43,18.01,31.88,32.48,37.87l.12.05c13.77,5.61,26.78,10.91,26.78,26.36,0,13.14-8.93,21.97-22.23,21.97s-23.26-8.81-23.26-20.94v-1.55c0-1.96-1.37-3.33-3.33-3.33h-8.01c-1.96,0-3.33,1.37-3.33,3.33v1.55c0,20.06,15.24,33.54,37.93,33.54s37.41-14.1,37.41-35.09c0-24.25-19.15-32.23-34.52-38.64Z"/>
  <path class="cls-1" d="M460.23,215.91c-11.69,0-21.41,5.02-27.39,14.15v-59.61c0-1.96-1.37-3.33-3.33-3.33h-8.52c-1.96,0-3.33,1.37-3.33,3.33v175.56c0,1.96,1.37,3.33,3.33,3.33h8.52c1.96,0,3.33-1.37,3.33-3.33v-93.67c2.02-14.28,10.72-22.8,23.26-22.8,14.29,0,22.48,10.46,22.48,28.68v87.78c0,1.96,1.37,3.33,3.33,3.33h8.52c1.96,0,3.33-1.37,3.33-3.33v-89.07c0-26.07-12.23-41.03-33.54-41.03Z"/>
</svg>