<?xml version="1.0" encoding="UTF-8"?>
<svg id="Layer_1" data-name="Layer 1" xmlns="http://www.w3.org/2000/svg" viewBox="0 0 634.13 404.88">
  <defs>
    <style>
      .cls-1 {
        fill: #ef6432;
      }
    </style>
  </defs>
  <path class="cls-1" d="M330.09,12.5v28.19l11.09.84c32.19,2.44,63.57,10.92,93.25,25.21,31.12,14.99,58.86,35.68,82.43,61.5,53.41,58.5,81.69,139.58,81.78,234.47v11.99h22.99v17.67H12.5v-17.67h22.97v-11.99c.1-94.89,28.38-175.97,81.79-234.47,23.57-25.82,51.31-46.51,82.43-61.5,29.69-14.29,61.06-22.78,93.25-25.21l11.09-.84v-11.13s0-17.06,0-17.06h26.04M339.09.5h-44.04c-1.66,0-3,1.34-3,3v26.06C160.21,39.55,23.69,150.11,23.49,362.71H3.5c-1.66,0-3,1.34-3,3v35.67c0,1.66,1.34,3,3,3h627.13c1.66,0,3-1.34,3-3v-35.67c0-1.66-1.34-3-3-3h-19.99c-.21-212.6-136.72-323.16-268.56-333.14V3.5c0-1.66-1.34-3-3-3h0Z"/>
  <path class="cls-1" d="M339.09,0h-44.04c-1.93,0-3.5,1.57-3.5,3.5v25.6c-33.59,2.6-66.31,11.48-97.27,26.38-32.57,15.68-61.58,37.33-86.24,64.33-55.45,60.74-84.85,144.55-85.05,242.39H3.5c-1.93,0-3.5,1.57-3.5,3.5v35.67c0,1.93,1.57,3.5,3.5,3.5h627.13c1.93,0,3.5-1.57,3.5-3.5v-35.67c0-1.93-1.57-3.5-3.5-3.5h-19.49c-.19-97.84-29.6-181.65-85.05-242.39-24.66-27.01-53.67-48.65-86.24-64.33-30.95-14.9-63.68-23.78-97.27-26.38V3.5c0-1.93-1.57-3.5-3.5-3.5h0ZM3.5,403.88c-1.38,0-2.5-1.12-2.5-2.5v-35.67c0-1.38,1.12-2.5,2.5-2.5h20.48v-.5c.1-97.8,29.41-181.56,84.79-242.21,24.57-26.91,53.48-48.48,85.94-64.11,30.98-14.92,63.74-23.77,97.37-26.32l.46-.04V3.5c0-1.38,1.12-2.5,2.5-2.5h44.04c1.38,0,2.5,1.12,2.5,2.5v26.53l.46.04c33.63,2.55,66.39,11.4,97.37,26.32,32.45,15.63,61.37,37.2,85.94,64.11,55.37,60.65,84.69,144.41,84.79,242.21v.5h20.49c1.38,0,2.5,1.12,2.5,2.5v35.67c0,1.38-1.12,2.5-2.5,2.5H3.5Z"/>
</svg>